<svg version="1.1" xmlns="http://www.w3.org/2000/svg" xmlns:xlink="http://www.w3.org/1999/xlink" x="0px" y="0px"
	 viewBox="0 0 500 500" style="enable-background:new 0 0 500 500;" xml:space="preserve">
<g id="BACKGROUND">
	<rect style="fill:#F9FAFB;" width="500" height="500"/>
</g>
<g id="OBJECTS">
	<path style="fill:#222220;" d="M469.667,233.587c-4.854,2.712-9.882,4.9-15.084,6.608c-4.2,1.228-8.487,2.086-12.817,2.773
		c-4.05,0.642-8.085,0.647-12.138,0.044c-1.196-0.178-2.326-0.516-3.449-0.93c-1.521-0.561-2.28-1.665-2.397-3.245
		c-0.053-0.715-0.111-1.434-0.094-2.149c0.048-2.017-0.343-3.959-0.87-5.891c-0.464-1.7-1.132-3.319-1.838-4.923
		c-1.188-2.699-2.401-5.388-3.604-8.08c-0.588-1.317-1.259-2.589-2.283-3.624c-0.774-0.783-1.036-1.694-1.156-2.779
		c-0.408-3.693-1.394-7.209-3.802-10.157c-0.643-0.788-0.648-1.5-0.325-2.419c0.939-2.666,0.46-5.201-1.021-7.542
		c-0.592-0.936-1.302-1.82-2.072-2.618c-1.881-1.95-3.811-3.855-5.757-5.742c-1.494-1.448-2.797-3.057-4.111-4.659
		c-0.93-1.134-1.609-2.412-1.754-3.87c-0.234-2.368-1.346-4.209-3.085-5.751c-0.657-0.583-1.267-1.229-1.645-2.035
		c-1.049-2.236-2.078-4.482-3.108-6.727c-0.342-0.746-0.472-1.526-0.243-2.33c0.411-1.442,0.143-2.841-0.215-4.244
		c-0.477-1.868-1.197-3.632-2.214-5.271c-0.883-1.423-1.78-2.837-2.94-4.062c-0.446-0.47-0.717-0.975-0.75-1.685
		c-0.143-3.158-1.094-6.099-2.656-8.832c-0.871-1.525-1.83-2.997-3.411-3.927c-0.408-0.24-0.886-0.577-0.804-1.101
		c0.175-1.113-0.575-1.75-1.094-2.537c-0.524-0.796-0.998-1.632-1.409-2.492c-1.378-2.879-2.71-5.781-5.012-8.086
		c-0.497-0.498-0.591-1.082-0.438-1.761c0.406-1.805-0.082-3.481-0.838-5.095c-0.303-0.647-0.683-1.261-1.056-1.872
		c-1.216-1.991-2.841-3.644-4.477-5.278c-1.167-1.165-1.924-2.449-2.149-4.14c-0.363-2.722-1.394-5.226-3.026-7.461
		c-1.974-2.704-3.965-5.397-5.915-8.118c-1.581-2.205-3.262-4.324-5.073-6.345c-1.595-1.781-3.166-3.583-4.733-5.387
		c-3.608-4.152-7.239-8.285-10.203-12.944c-0.128-0.201-0.287-0.382-0.431-0.573c-3.007-3.99-6.796-6.882-11.567-8.507
		c-3.771-1.285-7.529-2.628-11.215-4.134c-6.323-2.583-12.934-3.961-19.635-5.02c-1.023-0.162-2.047-0.323-3.077-0.426
		c-3.802-0.379-7.612-0.685-11.409-1.107c-5.709-0.635-11.424-1.04-17.171-0.79c-0.795,0.035-1.591,0.089-2.381,0.183
		c-3.164,0.378-6.328,0.726-9.521,0.722c-5.182-0.007-10.365,0.041-15.547-0.015c-4.809-0.053-9.528,0.639-14.238,1.48
		c-2.46,0.439-4.762,1.305-6.902,2.589c-1.714,1.028-3.324,2.207-4.736,3.626c-1.628,1.637-3.362,3.183-4.672,5.111
		c-0.612,0.902-1.441,1.143-2.495,0.973c-2.594-0.417-5.191-0.82-7.796-1.161c-3.078-0.403-6.158-0.892-9.252-1.051
		c-3.101-0.16-6.175-0.732-9.293-0.588c-0.315,0.014-0.635-0.053-0.951-0.093c-3.893-0.49-7.809-0.407-11.695-0.123
		c-3.964,0.289-7.926,0.691-11.883,1.125c-4.047,0.444-8.052,1.066-12.028,1.881c-8.856,1.815-17.374,4.711-25.654,8.306
		c-2.996,1.301-5.954,2.702-8.856,4.2c-6.459,3.333-12.496,7.36-18.433,11.534c-1.629,1.145-3.269,2.304-4.741,3.637
		c-4.253,3.85-8.796,7.355-13.021,11.248c-3.7,3.41-7.157,7.043-10.616,10.669c-2.636,2.764-5.042,5.752-7.789,8.423
		c-0.399,0.388-0.756,0.821-1.112,1.25c-3.112,3.754-6.673,7.066-10.219,10.393c-1.394,1.308-2.89,2.518-4.198,3.906
		c-2.022,2.144-3.97,4.364-5.472,6.927c-1.218,2.079-2.144,4.269-2.623,6.64c-0.209,1.035-0.231,2.06,0.159,3.061
		c0.595,1.527,2.13,2.289,3.678,1.762c0.673-0.229,1.294-0.609,1.94-0.919c0.723-0.346,1.43-0.272,2.003,0.26
		c0.639,0.593,1.249,1.232,1.783,1.92c2.332,3.007,3.276,6.511,3.572,10.233c0.208,2.621,0.392,5.243,0.605,7.863
		c0.272,3.335,0.572,6.667,0.843,10.001c0.342,4.212,0.823,8.405,1.551,12.569c0.787,4.505,2.05,8.875,4.179,12.92
		c1.967,3.736,4.192,7.338,6.613,10.806c2.6,3.726,5.208,7.447,7.862,11.135c2.141,2.975,4.397,5.868,6.53,8.849
		c4.698,6.569,9.99,12.625,15.733,18.287c2.227,2.196,4.817,3.913,7.683,5.209c2.251,1.018,4.479,2.09,6.701,3.17
		c2.871,1.397,5.624,3.005,8.287,4.767c2.278,1.507,4.259,3.311,5.918,5.51c2.159,2.863,4.422,5.649,6.697,8.421
		c3.795,4.623,7.712,9.136,12.097,13.222c2.688,2.504,5.678,4.64,8.462,7.023c4.972,4.257,10.146,8.239,15.56,11.917
		c7.069,4.802,14.488,8.99,22.107,12.849c7.155,3.624,13.71,8.12,19.453,13.751c2.106,2.066,4.184,4.16,6.301,6.214
		c1.837,1.782,3.793,3.391,6.167,4.46c3.013,1.357,5.767,0.953,8.256-1.116c1.283-1.067,2.496-2.243,3.601-3.493
		c2.269-2.567,4.49-5.179,6.647-7.84c3.269-4.033,5.998-8.431,8.682-12.872c4.235-7.005,7.359-14.49,9.978-22.201
		c2.285-6.729,3.719-13.686,5.242-20.613c1.012-4.604,1.416-9.297,1.714-13.986c0.15-2.351,0.21-4.71,0.075-7.067
		c-0.132-0.564-0.255-1.131-0.397-1.694c-2.335-9.341-5.735-18.418-8.412-27.803c-2.662-9.349-4.627-19.175-3.8-29.056
		c0.416-4.919,1.565-9.785,3.543-14.294c1.975-4.498,4.819-8.647,8.501-11.83c-3.322,3.55-5.786,7.775-7.435,12.262
		c-1.655,4.49-2.537,9.232-2.769,13.985c-0.451,9.555,1.586,19.043,4.22,28.288c2.172,7.622,4.768,15.193,6.755,22.968
		c0.159-0.117,0.337-0.218,0.551-0.281c1.303-0.382,2.627-0.662,3.995-0.673c3.986-0.032,7.973-0.093,11.959-0.095
		c4.197-0.003,8.231,0.808,12.084,2.511c3.281,1.449,6.59,2.831,9.993,3.979c1.741,0.587,3.489,1.132,5.3,1.443
		c4.479,0.768,8.739,0.317,12.589-2.333c0.263-0.181,0.532-0.354,0.81-0.508c0.834-0.463,1.227-0.373,1.768,0.493
		c0.336,0.537,0.635,1.109,0.869,1.697c0.502,1.258,0.985,2.525,1.418,3.809c1.716,5.086,4.048,9.872,6.87,14.433
		c2.934,4.743,6.071,9.368,8.391,14.47c0.325,0.715,0.793,1.385,1.296,1.992c0.595,0.718,1.367,0.814,2.129,0.255
		c0.635-0.466,1.242-1.015,1.726-1.633c1.67-2.134,3.375-4.246,4.782-6.572c0.165-0.273,0.32-0.552,0.496-0.818
		c0.605-0.911,0.846-0.987,1.732-0.483c0.762,0.434,1.486,0.934,2.256,1.353c2.311,1.255,4.575,2.618,6.967,3.696
		c5.456,2.459,11.005,4.69,17.013,5.45c0.827,0.104,1.245,0.571,1.458,1.35c0.316,1.152,0.678,2.293,1.053,3.428
		c2.104,6.355,4.689,12.544,6.545,18.986c0.154,0.535,0.389,1.046,0.577,1.571c1.633,4.581,3.182,9.19,4.526,13.865
		c0.529,1.838,0.954,3.709,1.554,5.522c2.629,7.936,3.598,16.151,4.193,24.431c0.269,3.747,0.033,7.481-0.263,11.22
		c-0.284,3.588-0.779,7.133-1.816,10.579c-0.666,2.212-1.476,4.381-2.233,6.565c-1.314,3.792-3.191,7.296-5.46,10.597
		c-0.948,1.38-1.929,2.74-2.822,4.155c-3.341,5.295-7.312,10.044-12.104,14.088c-4.005,3.38-8.334,6.162-13.579,7.199
		c-2.188,0.432-4.385,0.814-6.578,1.221c-2.613,0.485-5.232,0.413-7.855,0.092c-0.712-0.087-1.426-0.15-2.137-0.242
		c-5.243-0.675-10.371-1.786-15.107-4.243c-2.689-1.395-5.283-2.956-7.815-4.628c-2.492-1.645-4.244-3.873-5.346-6.58
		c-0.495-1.217-0.818-2.444-0.902-3.641c-1.031,0.666-2.037,1.336-2.968,2.068c-2.366,1.891-4.499,4.218-5.335,7.523
		c-0.447-1.657-0.218-3.518,0.397-5.194c0.625-1.685,1.616-3.224,2.809-4.562c2.393-2.672,5.327-4.5,7.883-6.349
		c1.767-1.273,3.481-2.64,5.123-4.084c1.024-1.027,1.999-2.102,2.939-3.202c2.339-2.738,3.919-5.984,5.28-9.316
		c0.09-0.219,0.144-0.458,0.183-0.693c0.7-4.22-1.003-10.262-6.055-12.755c-1.505-0.743-3.06-1.336-4.683-1.782
		c-1.783-0.49-3.619-0.66-5.434-0.771c-3.575-0.218-7.17-0.423-10.723,0.329c-2.986,0.632-5.927,1.458-8.3,3.468
		c-2.197,1.86-4.081,4.034-5.439,6.612c-2.885,5.481-4.668,11.334-5.838,17.391c-0.5,2.591-0.45,5.234-0.709,7.843
		c-0.456,4.587-0.052,9.077,0.971,13.526c2.177,9.461,6.925,17.626,13.089,24.972c4.056,4.834,8.746,9.059,13.934,12.691
		c0.978,0.685,1.975,1.354,3.016,1.936c4.259,2.383,8.716,4.288,13.419,5.632c2.993,0.855,6.013,1.566,9.073,2.123
		c5.419,0.987,10.867,1.697,16.389,1.546c2.068-0.057,4.136-0.232,6.197-0.421c2.3-0.21,4.604-0.423,6.886-0.768
		c4.423-0.669,8.731-1.85,13.002-3.153c6.278-1.916,12.247-4.576,17.948-7.806c4.58-2.595,9.049-5.39,13.067-8.817
		c3.152-2.687,6.172-5.518,9.003-8.557c3.978-4.27,7.578-8.833,10.828-13.668c5.536-8.235,10.113-16.97,13.566-26.288
		c2.938-7.928,5.721-15.894,7.424-24.204c1.875-9.15,3.274-18.351,3.469-27.708c0.015-0.716,0.055-1.435,0.138-2.146
		c0.426-3.658,0.364-7.339,0.094-10.982c-0.229-3.094-0.391-6.199-0.638-9.293c-0.324-4.05-0.602-8.103-1.126-12.132
		c-0.442-3.396-0.817-6.803-1.656-10.138c-0.724-2.878-2.745-7.761-0.897-10.47c0.903-1.324,2.299-2.212,3.626-3.111
		c3.893-2.639,7.508-5.685,10.783-9.059c0.749-0.772,1.506-1.663,2.003-2.621c3.156-3.582,5.49-7.766,4.568-12.047
		c-0.15-0.696-0.38-1.287-0.67-1.797c0.3-0.123,0.599-0.246,0.896-0.373c5.759-2.111,11.052-5.132,15.855-9.094
		c3.891-3.209,13.255-8.968,13.037-14.87C481.889,226.618,472.636,231.928,469.667,233.587z M280.012,373.21
		c1.793-0.966,3.413-1.782,5.128-2.545c1.706-0.754,3.501-1.415,5.45-1.819c1.964-0.401,4.06-0.497,6.11-0.037
		c2.023,0.447,4.06,1.512,5.162,3.271c-2.009-0.368-3.706-0.353-5.411-0.199c-1.695,0.163-3.368,0.457-5.075,0.805
		c-0.648,0.131-1.311,0.267-1.983,0.399c0.188,0.028,0.376,0.056,0.559,0.086c1.927,0.333,3.666,0.826,5.339,1.142
		c1.692,0.336,3.404,0.573,5.182,0.76c1.784,0.191,3.61,0.289,5.661,0.478c-1.55,1.368-3.476,2.174-5.473,2.598
		c-2.003,0.421-4.103,0.413-6.127,0.01c-2.052-0.404-3.889-1.209-5.551-2.074c-1.455-0.756-2.805-1.543-4.316-2.355
		C283.131,373.808,281.541,373.723,280.012,373.21z M416.8,241.923c0.572-0.021,1.073,0.403,1.148,0.97
		c0.797,6.018,0.608,12.484-0.871,19.228c-0.085,0.387-0.371,0.709-0.748,0.835c-5.529,1.844-11.401,2.663-17.222,2.345
		c-8.434-0.46-16.717-3.3-23.686-8.067c-0.074-0.05-0.146-0.103-0.219-0.154c0.083-0.076,0.161-0.157,0.245-0.233
		c7.16-6.462,16.767-9.94,26.206-12.385C406.609,243.178,411.706,242.112,416.8,241.923z M407.984,219.403
		c0.426-0.069,0.859,0.112,1.105,0.466c2.213,3.186,4.139,6.749,5.659,10.621c0.264,0.673-0.192,1.406-0.909,1.499
		c-11.582,1.504-22.801,5.872-32.241,12.757c-1.55,1.13-3.065,2.34-4.431,3.685c-0.728,0.716-2.017,0.133-1.861-0.993
		c0.108-0.777,0.16-1.561,0.075-2.331c0.391-0.37,0.738-0.776,1.034-1.231c0.635-0.965,1.314-1.903,1.997-2.852
		c0.698-0.934,1.385-1.898,2.127-2.823l2.249-2.812c-1.111,0.49-2.204,1.033-3.251,1.65c-1.046,0.618-2.1,1.251-3.093,1.965
		c-0.77,0.534-1.511,1.111-2.243,1.699c-0.17-0.591-0.298-1.039-0.389-1.365c-0.186-0.66,0.045-1.361,0.583-1.786
		c0.222-0.176,0.435-0.367,0.574-0.532c4.667-5.537,10.702-9.93,17.305-12.949C397.262,221.791,402.566,220.281,407.984,219.403z
		 M403.003,201.375c0.118,1.264,0.146,2.536,0.077,3.804c-0.012,0.214,0.04,0.425,0.149,0.61c0.186,0.314,0.364,0.632,0.533,0.957
		c1.148,2.208,1.858,4.695,1.872,7.167c0.003,0.488-0.507,0.977-0.725,0.741c-0.275-0.298-0.693-0.422-1.088-0.329
		c-6.112,1.455-12.065,3.567-17.476,6.734c-5.448,3.189-10.327,7.504-13.811,12.737c-0.195,0.293-0.5,2.15-1.025,1.639
		c-2.234-2.176-4.237-4.582-5.995-7.167c-0.211-0.31-0.254-0.711-0.113-1.058c0.435-1.073,0.918-2.126,1.455-3.152
		c4.076-7.796,10.894-13.976,18.684-18.061c4.405-2.31,9.115-3.958,13.958-5.109c0.723-0.172,1.448-0.332,2.176-0.482
		C402.312,200.273,402.942,200.725,403.003,201.375z M392.035,182.16c0.131-0.023,0.263-0.049,0.394-0.071
		c0.086,0.203,0.162,0.411,0.246,0.615c1.794,1.549,3.501,3.187,4.966,5.045c1.376,1.746,2.501,3.679,3.369,5.724
		c0.287,0.677-0.139,1.433-0.865,1.547c-7.274,1.144-14.305,3.857-20.422,7.959c-6.813,4.567-12.46,10.835-16.363,18.046
		c-0.437,0.807-1.604,0.761-1.991-0.071c-0.087-0.188-0.164-0.381-0.249-0.571c0.25-0.499,0.509-1.07,0.699-1.666
		c0.449-1.357,0.959-2.698,1.485-4.044c1.071-2.683,2.282-5.346,3.612-8.016c-2.233,1.979-4.259,4.213-6.068,6.63
		c-0.564,0.744-1.093,1.514-1.611,2.295c-0.567-1.68-1.065-3.381-1.479-5.103c-0.056-0.233-0.038-0.48,0.053-0.702
		c3.16-7.719,8.463-14.559,15.186-19.499C378.607,186.157,385.184,183.382,392.035,182.16z M374.162,146.439
		c0.197-0.045,0.395-0.089,0.593-0.131c0.548-0.117,1.106,0.201,1.287,0.732c0.531,1.563,0.984,3.152,1.352,4.761
		c0.012,0.053,0.029,0.105,0.05,0.155c0.708,1.655,1.236,3.386,1.56,5.156c0.074,0.402,0.139,0.807,0.205,1.212
		c0.088,0.543-0.23,1.063-0.754,1.234c-11.695,3.829-22.143,11.529-29.129,21.66c-0.548,0.795-1.782,0.568-2.003-0.372
		c-0.208-0.882-0.379-1.772-0.534-2.666c0.145-0.2,0.28-0.405,0.404-0.616l0.89-1.393c0.613-0.915,1.177-1.854,1.7-2.826
		c1.066-1.932,2.238-3.816,3.51-5.647c2.534-3.672,5.486-7.1,8.761-10.307c-3.983,2.277-7.648,5.179-10.934,8.498
		c-1.639,1.665-3.178,3.441-4.606,5.313c-0.154,0.201-0.287,0.417-0.433,0.624c-0.053-1.012-0.079-2.026-0.083-3.039
		c-0.001-0.185,0.043-0.369,0.127-0.534c3.216-6.29,8.029-11.763,13.888-15.713C364.296,149.651,369.125,147.586,374.162,146.439z
		 M365.394,129.247c0.139-0.045,0.279-0.088,0.419-0.13c0.615-0.183,1.273,0.187,1.412,0.814c0.115,0.518,0.218,1.038,0.309,1.561
		c0.031,0.177,0.105,0.342,0.218,0.482c2.042,2.532,3.836,5.264,5.341,8.149c0.336,0.644-0.048,1.42-0.754,1.588
		c-3.885,0.923-7.664,2.353-11.232,4.147c-4.088,2.055-7.974,4.614-11.099,7.957c-0.731,0.782-1.417,1.611-2.049,2.478
		c-0.594,0.816-1.876,0.45-1.988-0.553c-0.02-0.179-0.041-0.358-0.065-0.537c-0.336-2.555-1.094-5.13-2.395-7.335
		c-0.002-0.004-0.005-0.009-0.008-0.013c0.011-0.811,0.023-1.663,0.034-2.474C348.795,137.82,356.631,132.078,365.394,129.247z
		 M362.619,118.808c0.609,0.962,1.172,1.954,1.685,2.971c0.309,0.611-0.03,1.346-0.683,1.552c-4.236,1.332-8.285,3.202-11.913,5.751
		c-3.949,2.774-7.369,6.389-9.771,10.557c-0.405,0.703-1.389,0.738-1.861,0.079c-0.293-0.41-0.622-0.793-0.942-1.184
		c0.357-0.766,0.733-1.525,1.119-2.29c0.513-0.966,1.015-1.96,1.582-2.921c0.565-0.962,1.133-1.943,1.733-2.922
		c-0.995,0.572-1.966,1.201-2.88,1.902c-0.913,0.702-1.829,1.424-2.672,2.224c-0.468,0.427-0.917,0.875-1.357,1.332
		c-0.122-0.12-0.244-0.241-0.371-0.354c-0.613-0.549-1.252-1.065-1.903-1.564c0.474-0.703,0.901-1.428,1.285-2.188
		c0.791-1.539,1.704-3.023,2.691-4.477c1.991-2.894,4.347-5.604,7.043-8.08c-3.329,1.529-6.438,3.658-9.176,6.236
		c-1.378,1.283-2.646,2.693-3.832,4.184c-0.503,0.639-0.929,1.331-1.302,2.052c-0.63-0.393-1.269-0.773-1.915-1.141
		c-0.525-0.299-0.733-0.963-0.443-1.494c2.846-5.205,7.047-9.669,12.101-12.779c3.841-2.364,8.109-3.944,12.413-5.291
		c0.426-0.133,0.856-0.262,1.289-0.387c0.346-0.1,0.726-0.031,1.009,0.192c0.348,0.275,0.688,0.561,1.018,0.857
		C358.904,113.725,360.939,116.154,362.619,118.808z M55.746,108.625c-2.809,0.907-5.52,1.96-8.134,3.609
		c1.714-2.611,4.434-4.484,7.193-5.882c2.786-1.387,5.678-2.44,8.66-3.25c2.977-0.807,6.029-1.336,9.101-1.559
		c3.072-0.211,6.166-0.146,9.211,0.407c-0.624,0.157-1.244,0.304-1.863,0.45c0.192,0.023,0.386,0.038,0.577,0.068
		c-3.363,0.774-6.471,1.889-9.498,3.24c-3.027,1.343-5.98,2.881-9.005,4.385c-3.023,1.501-6.124,2.98-9.402,4.104
		c-3.266,1.112-6.738,1.901-10.203,1.754c3.253-1.15,6.27-2.517,9.247-4.03c2.976-1.504,5.914-3.123,8.963-4.636
		c0.198-0.098,0.401-0.191,0.6-0.288C59.368,107.517,57.546,108.054,55.746,108.625z M36.869,125.965
		c5.219-1.989,9.231-5.546,13.641-8.898c2.201-1.695,4.584-3.256,7.019-4.673c2.472-1.361,5.01-2.621,7.648-3.64
		c2.636-1.017,5.33-1.904,8.089-2.525c1.368-0.355,2.769-0.568,4.155-0.827c1.403-0.173,2.794-0.406,4.205-0.478
		c5.615-0.45,11.308,0.013,16.648,1.565c-5.56,0.082-10.961,0.477-16.25,1.495c-1.326,0.212-2.63,0.551-3.94,0.817
		c-1.296,0.349-2.604,0.629-3.882,1.031c-2.578,0.713-5.099,1.611-7.592,2.57c-2.495,0.961-4.918,2.094-7.326,3.267
		c-2.382,1.235-4.716,2.516-7.045,3.941c-2.338,1.414-4.73,2.875-7.284,4.077C42.404,124.875,39.657,125.799,36.869,125.965z
		 M104.848,128.234c-4.011,1.383-8.076,2.372-12.157,3.249c-4.083,0.863-8.189,1.561-12.312,2.133
		c-4.115,0.566-8.289,1.052-12.526,1.133c-4.223,0.07-8.529-0.222-12.607-1.427c4.217-0.418,8.269-0.969,12.334-1.635
		c4.059-0.654,8.126-1.379,12.258-1.953c4.123-0.575,8.264-1.024,12.427-1.308C96.431,128.156,100.612,127.998,104.848,128.234z
		 M48.299,172.516c5.385-0.987,10.698-1.858,15.967-2.899c5.269-1.029,10.492-2.168,15.679-3.462
		c5.082-1.265,10.126-2.681,15.157-4.21c-5.138,1.085-10.405,1.653-15.679,1.544c-7.006-0.161-14.084-1.455-20.311-4.579
		c0.197-0.002,0.387-0.012,0.584-0.015c4.982-0.494,9.684-1.652,14.304-3.186c4.762-1.582,9.479-3.473,14.257-5.258
		c4.753-1.802,9.471-3.594,14.07-5.651c3.258-1.449,6.437-3.052,9.576-4.832c-0.044,0.02-0.088,0.043-0.132,0.063
		c-1.309,0.604-2.625,1.194-3.951,1.76c-2.655,1.121-5.343,2.165-8.066,3.116c-5.444,1.906-11.018,3.474-16.684,4.659
		c-5.665,1.182-11.426,1.979-17.218,2.251c-5.788,0.26-11.614,0.052-17.308-0.992c0.285-0.03,0.567-0.061,0.851-0.091
		c3.567-1.268,7.132-2.253,10.666-3.264c3.578-1.011,7.13-1.998,10.651-3.054c3.522-1.056,7.01-2.178,10.488-3.396
		c3.487-1.209,6.932-2.555,10.521-3.898c-2.708,2.723-5.906,4.899-9.273,6.721c-2.448,1.314-5.003,2.417-7.616,3.344
		c2.484-0.457,4.963-0.94,7.438-1.456c5.547-1.154,11.072-2.449,16.616-3.772l8.337-1.988l4.196-0.966
		c1.401-0.32,2.781-0.588,4.074-1.251c-0.123,0.119-0.263,0.218-0.394,0.328c0.23-0.141,0.461-0.271,0.69-0.414
		c-3.325,3.997-7.565,7.211-12.044,9.874c-4.498,2.664-9.283,4.75-14.105,6.577c-2.689,1.001-5.405,1.966-8.171,2.815
		c5.603-0.968,11.125-2.242,16.603-3.784c6.281-1.765,12.522-3.845,18.863-5.939c6.351-2.071,12.754-4.264,19.531-5.798
		c-5.308,4.474-11.043,8.195-17.088,11.466c-2.808,1.507-5.699,2.886-8.659,4.128c-4.455,3.082-9.273,5.592-14.247,7.734
		c-5.036,2.156-10.258,3.889-15.578,5.219c-5.321,1.328-10.744,2.253-16.203,2.715C59.234,173.124,53.739,173.172,48.299,172.516z
		 M121.626,86.493l-8.397-2.784c2.951,0.313,5.866,0.886,8.744,1.604c2.877,0.722,5.713,1.61,8.496,2.642
		c2.782,1.032,5.512,2.209,8.163,3.538c2.649,1.333,5.232,2.801,7.672,4.49l-8.181-3.366c-2.722-1.104-5.452-2.172-8.2-3.192
		C127.175,88.404,124.409,87.433,121.626,86.493z M72.337,207.596c-1.218,0.402-2.44,0.792-3.669,1.159
		c0.618-0.313,1.229-0.632,1.845-0.947c-0.103,0.01-0.204,0.026-0.307,0.036c0.405-0.176,0.815-0.335,1.222-0.506
		c7.232-3.709,14.359-7.512,21.359-11.536c6.131-3.511,12.175-7.16,18.161-10.911c-8.489,3.947-17.344,7.268-26.513,9.481
		c-9.821,2.283-20.025,3.334-29.972,2.176c0.613-0.133,1.219-0.273,1.829-0.41c-0.226,0.014-0.451,0.038-0.678,0.048
		c5.394-1.859,10.489-4.095,15.428-6.67c4.94-2.564,9.737-5.405,14.565-8.276c4.827-2.868,9.688-5.77,14.752-8.372
		c5.06-2.586,10.322-4.932,15.858-6.36c-4.888,2.94-9.604,5.945-14.309,9.028c-4.705,3.071-9.415,6.172-14.299,9.073
		c-3.827,2.27-7.769,4.419-11.871,6.258c2.327-0.753,4.636-1.547,6.93-2.386c9.075-3.376,17.914-7.289,26.679-11.491
		c8.751-4.239,17.433-8.74,26.251-13.132c4.395-2.228,8.89-4.319,13.239-6.5c4.059-2.029,7.988-4.249,11.779-6.913
		c0.026-0.035,0.055-0.066,0.08-0.102c-0.012,0.025-0.027,0.048-0.039,0.073c0.274-0.193,0.553-0.368,0.825-0.566
		c-0.624,0.916-1.301,1.795-2.01,2.65c-2.06,3.184-4.999,5.809-7.897,8.182c-3.56,2.895-7.159,5.72-10.811,8.49
		c-7.306,5.532-14.814,10.814-22.553,15.761c-7.734,4.95-15.718,9.542-23.976,13.592c-2.067,1.012-4.151,1.993-6.251,2.938
		c3.885-1.224,7.727-2.428,11.459-3.87c4.749-1.801,9.414-3.886,14.099-6.028c4.692-2.129,9.379-4.365,14.277-6.258
		c-4.07,3.313-8.357,6.278-12.838,8.988c-4.483,2.699-9.196,5.086-14.146,6.962c-4.958,1.908-10.097,3.148-15.187,4.168
		C81.248,206.294,76.825,207.067,72.337,207.596z M105.318,228.841c0.141-0.266,0.29-0.527,0.434-0.791
		c-0.531,0.364-1.057,0.717-1.59,1.085c1.671-2.744,3.595-5.31,5.668-7.748c1.603-2.359,3.312-4.646,5.084-6.873
		c3.582-4.499,7.443-8.75,11.419-12.857c0.907-0.936,1.839-1.843,2.756-2.766c-3.398,2.698-6.849,5.327-10.361,7.875
		c-5.783,4.156-11.611,8.18-17.775,11.855c-6.155,3.614-12.889,6.768-20.017,7.668c6.693-2.502,12.617-6.215,18.346-10.262
		c5.711-4.078,11.415-8.316,17.147-12.435c5.725-4.146,11.453-8.287,17.221-12.392c5.286-3.753,10.579-7.505,16.02-11.109
		c0.657-0.524,1.308-1.055,1.977-1.568c-3.398,4.656-7.086,9.028-10.853,13.323c-2.591,2.945-5.261,5.817-7.955,8.66
		c1.604-1.274,3.202-2.543,4.785-3.814c5.911-4.743,11.625-9.598,16.854-14.941c5.242-5.346,9.898-11.209,13.851-18.059
		c-0.834,7.918-4.458,15.481-9.129,21.997c-4.706,6.554-10.518,12.166-16.669,17.115c-6.156,4.941-12.612,9.259-19.045,13.471
		c-5.61,3.651-11.152,7.282-16.771,11.115C106.248,227.876,105.789,228.357,105.318,228.841z M123.411,239.358
		c-4.945,3.489-10.093,6.693-15.545,9.34c4.54-4.014,9.133-7.846,13.639-11.767c4.501-3.923,8.956-7.87,13.332-11.905
		c4.369-4.043,8.677-8.151,12.938-12.333c2.119-2.11,4.297-4.15,6.23-6.352c1.944-2.199,3.65-4.604,4.778-7.426
		c-0.022,0.227-0.06,0.451-0.093,0.677c0.295-0.548,0.584-1.098,0.889-1.645c-0.668,4.508-1.856,8.885-3.279,13.178
		c-1.436,4.289-3.159,8.479-5.118,12.555c-1.393,2.894-2.909,5.729-4.547,8.493c0.875-1.23,1.733-2.471,2.558-3.732
		c1.046-1.615,2.073-3.234,3.028-4.905l2.788-5.081c1.906-3.344,3.717-6.792,5.489-10.234c3.546-6.885,6.826-13.866,9.489-21.087
		c2.642-7.229,4.527-14.721,5.403-22.526c0.768,7.83-0.337,15.845-2.476,23.469c-2.178,7.633-5.332,14.939-8.929,21.934
		c-1.8,3.501-3.677,6.938-5.755,10.311l-3.076,5.057c-1.073,1.664-2.247,3.274-3.447,4.852c-3.869,5.014-8.276,9.604-13.165,13.554
		c-0.743,0.863-1.606,1.71-2.648,2.172c0.111-0.115,0.204-0.238,0.304-0.358c-0.478,0.355-0.952,0.715-1.439,1.057
		c0.885-0.953,1.752-1.916,2.61-2.884c0.1-0.2,0.199-0.4,0.293-0.604l1.381-3.068c0.941-2.038,1.882-4.066,2.844-6.078l5.762-12.039
		l5.065-10.511c-0.877,1.125-1.78,2.22-2.68,3.31c-3.885,4.641-8.098,9.009-12.538,13.126
		C133.044,232.013,128.339,235.845,123.411,239.358z M146.051,275.403c2.059-3.562,4.234-7.037,6.194-10.593
		c1.985-3.543,3.68-7.18,5.227-10.924c1.542-3.738,3.002-7.552,4.437-11.353c1.438-3.803,2.823-7.623,4.141-11.464
		c0.972-2.805,1.897-5.626,2.799-8.454c-0.633,1.249-1.303,2.48-2.008,3.69c-2.722,4.652-5.976,8.991-9.586,12.986
		c-3.612,3.995-7.583,7.65-11.83,10.921c-4.254,3.261-8.754,6.19-13.571,8.542c3.875-3.699,7.786-7.229,11.557-10.88
		c3.776-3.64,7.444-7.351,10.937-11.212c3.494-3.859,6.809-7.867,9.927-12.052c2.518-3.365,4.87-6.861,7.171-10.463
		c0.618-2.113,1.221-4.231,1.802-6.356c1.083-3.92,2.055-7.872,3.013-11.838c0.948-3.97,1.786-7.968,2.681-11.986
		c-0.105,8.225-1.113,16.436-2.7,24.525c-1.599,8.089-3.794,16.063-6.488,23.854c-1.335,3.9-2.802,7.753-4.384,11.556
		c-1.582,3.806-3.241,7.561-5.093,11.27c-1.844,3.703-3.967,7.326-6.406,10.672C151.44,269.195,148.802,272.346,146.051,275.403z
		 M201.858,216.886c-0.018-0.524-0.043-1.049-0.063-1.573c-0.033,0.454-0.065,0.909-0.1,1.362
		c-0.422,5.283-0.974,10.593-1.889,15.879c-0.892,5.283-2.133,10.543-3.885,15.635c-1.733,5.088-4.027,10.007-6.976,14.439
		c2.872-10.247,4.169-20.442,4.73-30.779c0.308-5.159,0.437-10.348,0.586-15.563c0.139-5.221,0.266-10.335-0.064-15.306
		c-0.297-4.961-1.237-9.747-2.532-14.703c-0.991-3.814-2.16-7.672-3.255-11.619l0.134,1.353l0.158,2.311l0.286,4.632l0.061,4.64
		c0.005,0.774,0.021,1.549,0.011,2.323l-0.085,2.32c-0.133,6.197-0.888,12.363-1.853,18.481
		c-2.128,12.206-5.758,24.167-11.066,35.321c-1.256,2.817-2.764,5.517-4.212,8.23c-0.74,1.349-1.567,2.653-2.352,3.974
		c-0.792,1.318-1.587,2.63-2.47,3.891l-2.602,3.796c-0.912,1.234-1.848,2.45-2.788,3.658l-1.411,1.807l-1.498,1.741
		c-1.011,1.149-2.018,2.296-3.056,3.412c5.629-10.833,10.764-21.632,14.687-32.87c4.044-11.174,7.006-22.648,9.041-34.275
		c0.919-5.827,1.771-11.676,2.161-17.574l0.189-2.209l0.11-2.213l0.225-4.433c0.01-2.961,0.146-5.91,0.098-8.904
		c-0.052-5.987-0.218-12.153,0.388-18.342c0.609-6.152,2.061-12.437,5.264-17.682c-0.197,0.724-0.372,1.449-0.529,2.174
		c0.134-0.321,0.256-0.647,0.402-0.963c-0.591,5.299-0.103,10.433,1.006,15.41c1.094,4.987,2.782,9.8,4.622,14.638
		c1.839,4.846,3.831,9.737,5.47,14.908c0.817,2.584,1.544,5.236,2.101,7.961c0.329,1.587,0.583,3.2,0.78,4.815
		c1.481,6.482,2.515,13.064,3.243,19.678c0.875,8.066,1.247,16.191,1.16,24.31c-0.09,8.118-0.641,16.233-1.695,24.278
		c-1.066,8.041-2.576,16.026-4.812,23.821c0.616-8.082,1.289-16.093,1.74-24.111c0.462-8.014,0.759-16.021,0.849-24.032
		C202.258,232.92,202.141,224.908,201.858,216.886z M217.734,122.9c1.341,2.304,1.974,5.042,2.108,7.765
		c0.133,2.734-0.228,5.486-0.872,8.122c-1.286,5.294-3.527,10.1-5.09,14.916c-1.6,4.828-2.733,9.763-2.839,14.766
		c-0.093,4.995,0.87,10.067,3.353,14.76c-3.851-3.725-5.938-9.191-6.437-14.638c-0.504-5.503,0.505-11.015,2.201-16.118
		c1.696-5.158,4.137-9.802,5.866-14.568C217.749,133.169,218.81,128.12,217.734,122.9z M207.854,130.925
		c-0.13-3.755-0.727-7.485-1.635-11.153c-0.933-3.668-2.285-7.234-3.898-10.771c2.449,3.02,4.343,6.521,5.668,10.23
		c1.292,3.72,2.078,7.645,2.214,11.602c0.133,3.931-0.253,7.898-1.323,11.677c0.379-0.728,0.747-1.455,1.078-2.185
		c1.131-2.469,1.968-5.075,2.525-7.766c0.564-2.695,0.82-5.467,0.882-8.338c0.91,2.731,1.178,5.683,0.951,8.596
		c-0.233,2.917-0.99,5.809-2.221,8.488c-1.233,2.69-2.869,5.026-4.268,7.408c-1.399,2.378-2.609,4.85-3.039,7.696
		c-0.444-2.252-0.03-4.602,0.722-6.79c0.419-2.541,1.155-5.027,1.556-7.46C207.767,138.448,207.981,134.676,207.854,130.925z
		 M208.219,106.746c-2.271-2.874-4.721-5.583-7.348-8.109s-5.434-4.865-8.396-7.02c-2.961-2.162-6.087-4.109-9.338-5.972
		c3.626,0.962,7.096,2.513,10.35,4.429c3.252,1.924,6.28,4.243,9.012,6.867c2.733,2.623,5.172,5.555,7.226,8.728
		c2.046,3.174,3.735,6.58,4.839,10.166C212.569,112.663,210.497,109.617,208.219,106.746z M208.34,271.207
		c-1.907,5.999-4.475,11.926-8.311,16.921c2.402-5.796,4.052-11.7,5.339-17.711c1.282-6.01,2.321-12.1,3.245-18.18
		c0.898-6.091,1.617-12.205,2.202-18.355c0.279-3.076,0.534-6.159,0.774-9.255c0.23-3.096,0.421-6.202,0.686-9.333
		c1.158,6.17,1.603,12.45,1.623,18.73c-0.003,6.282-0.488,12.567-1.407,18.788C211.538,259.032,210.233,265.182,208.34,271.207z
		 M232.494,252.664c0.145,1.749,0.315,3.501,0.363,5.258c0.081,1.757,0.137,3.517,0.109,5.277
		c-0.022,7.043-0.715,14.109-2.131,21.047c-1.43,6.931-3.625,13.731-6.657,20.134c-3.038,6.39-6.896,12.416-11.71,17.523
		c3.487-6.084,6.473-12.298,8.869-18.728c2.401-6.422,4.273-13.014,5.66-19.723c1.374-6.711,2.294-13.522,2.897-20.391
		c0.172-1.717,0.281-3.439,0.394-5.164c0.144-1.725,0.188-3.454,0.29-5.187c0.173-3.47,0.378-6.898-0.615-10.28
		C231.768,245.496,232.179,249.219,232.494,252.664z M235.639,106.438l-1.555-2.433c-1.191-1.625-2.406-3.239-3.661-4.818
		c-1.344-1.504-2.724-2.976-4.123-4.422c-5.765-5.632-12.186-10.518-19.055-14.554c-13.728-8.057-29.322-12.757-44.864-13.057
		c15.299,2.636,29.619,8.891,41.765,17.789c6.076,4.445,11.616,9.547,16.462,15.183c1.167,1.448,2.352,2.872,3.574,4.263
		c1.13,1.466,2.299,2.9,3.491,4.321l3.312,4.469c0.369,0.58,0.754,1.15,1.151,1.714c-0.84,2.499-1.548,5.042-2.076,7.626
		c-2.474-3.584-5.188-7.034-7.925-10.409c-6.585-8.12-13.471-16.128-21.835-22.487c-4.135-3.144-8.601-5.86-13.245-8.224
		c-10.55-5.371-22.067-8.871-33.85-10.426c-2.17-1.36-4.428-2.574-6.797-3.542c-2.916-1.193-5.971-2.008-9.015-2.82
		c-5.606-1.495-11.329-2.995-17.084-3.295c5.447,0.57,10.857,2.131,15.835,4.622c3.006,1.475,5.841,3.253,8.558,5.154
		c2.74,1.897,5.214,3.998,7.778,6.044c5.123,3.911,10.164,8.083,15.385,11.725c5.226,3.608,10.939,6.587,17.463,7.524
		c-3.271,0.378-6.656-0.051-9.875-0.96c-3.229-0.911-6.314-2.314-9.213-3.953c-5.804-3.321-10.975-7.288-16.207-11.274
		c-2.529-2.015-4.988-4.184-7.532-6.103c-1.826-1.394-3.678-2.743-5.581-4.007c-0.279,0.006-0.558,0.023-0.837,0.032
		c-0.601-0.268-1.205-0.529-1.818-0.766c-3.02-1.099-6.116-1.928-9.242-2.478c-6.249-1.088-12.629-1.081-18.672,0.158
		c6.15,0.384,12.095,1.618,17.655,3.668c0.3,0.11,0.595,0.232,0.893,0.347c-0.594,0.082-1.19,0.155-1.783,0.248
		c-19.063,3.003-37.17,11.437-51.683,23.894c2.055-0.423,4.149-0.714,6.266-0.814c2.919-0.139,5.8,0.039,8.637,0.309
		c5.686,0.547,11.334,1.624,16.798,3.22c5.436,1.57,10.675,3.404,16.376,3.459c-2.772,0.652-5.701,0.645-8.55,0.357
		c-2.858-0.29-5.659-0.866-8.411-1.418c-5.482-1.116-10.976-1.962-16.515-2.498c-2.773-0.266-5.529-0.484-8.249-0.459
		c-2.716,0.023-5.44,0.322-8.16,0.782c-5.445,0.939-10.827,2.615-16.305,4.093c0.305-0.164,0.613-0.322,0.919-0.483
		c16.712-18.529,38.371-32.417,62.002-40.423c0.244-0.083,0.49-0.158,0.735-0.239c18.079-6.022,37.287-8.615,56.301-7.206
		c5.638,0.418,11.298,1.162,16.95,1.778c1.319,0.278,2.638,0.547,3.954,0.804c4.801,0.948,9.564,1.821,14.217,2.973
		c4.651,1.15,9.185,2.587,13.542,4.52c4.354,1.94,8.47,4.399,12.335,7.528c-2.637-4.24-6.577-7.663-10.908-10.264
		c-3.512-2.094-7.319-3.658-11.213-4.817c2.017-0.175,4.03-0.436,6.034-0.82c9.33-1.788,18.007-5.998,27.136-8.625
		c6.496-1.869,14.007-2.86,21.793-3.016c-4.145,4.959-7.073,10.939-8.395,17.269c-0.643,3.079-0.903,6.234-0.793,9.377
		c0.509-6.655,2.859-13.367,7.313-18.539c2.273-2.657,5.045-4.84,8.109-6.339c3.056-1.49,6.411-2.337,9.671-2.155
		c-5.76,2.958-9.966,7.223-12.779,12.111c-2.795,4.873-4.199,10.4-4.55,16.041c-0.396,5.585,0.64,11.544,1.027,18.018
		c0.094,1.826,0.149,3.683,0.063,5.568c0.154-0.534,0.294-1.07,0.412-1.614c0.457-2.056,0.689-4.192,0.815-6.37
		c0.256-4.356,0.043-8.886,0.457-13.538c0.404-4.605,1.458-9.465,4.189-13.556c2.725-4.074,6.717-6.912,10.89-8.858
		c3.77-1.743,7.705-2.828,11.655-3.743c0.35-0.14,0.701-0.279,1.055-0.408c4.827,1.232,9.371,2.801,13.412,4.699
		c5.915,3.467,11.368,8.387,13.529,14.893c1.418,4.269,1.322,8.916,2.65,13.214c2.231,7.22,8.17,12.618,14.144,17.245
		c2.67,2.068,5.42,4.105,8.013,6.286c2.993-0.069,5.987,0.456,8.619,1.746c-3.214,0.188-6.207,0.583-9.075,1.336
		c-2.861,0.745-5.577,1.807-8.093,3.21c-2.516,1.405-4.845,3.161-6.979,5.207c-2.051,1.957-3.878,4.193-5.643,6.692
		c0.023,0.016,0.047,0.03,0.07,0.046c-0.029-0.008-0.058-0.015-0.086-0.023c-0.001,0-0.001,0.001-0.001,0.001
		c-0.022,0.057-0.049,0.111-0.071,0.169c-0.013-0.006-0.026-0.011-0.039-0.018c-0.039,0.056-0.08,0.108-0.119,0.165
		c0.007-0.069,0.021-0.137,0.028-0.206c-0.299-0.144-0.605-0.273-0.907-0.409c-3.182-0.862-6.357-1.448-9.529-1.675
		c-3.568-0.248-7.114-0.051-10.559,0.511c-3.448,0.561-6.779,1.593-9.92,2.966c-3.135,1.36-6.061,3.24-8.949,5.304
		c-5.757,4.135-11.325,9.255-18.166,12.886c-3.362,1.806-7.182,3.25-11.119,3.485c-3.559,0.231-6.963-0.294-10.275-1.06
		c5.46-0.195,10.832-2.251,15.567-5.007c4.993-2.909,9.4-6.594,13.505-10.401c4.095-3.805,7.942-7.707,11.96-11.364
		c4.019-3.671,8.227-7.038,13.091-9.968c-5.668,0.754-11.016,3.394-15.748,6.562c-3.535,2.373-6.772,5.074-9.866,7.85
		c4.375-6.039,7.951-12.681,10.57-19.646c2.606-6.931,4.368-14.346,3.641-21.714c-0.001-0.015-0.003-0.029-0.004-0.044
		c-0.26-2.597-2.284-4.672-4.852-5.137c-1.522-0.276-3.048-0.507-4.563-0.706c-1.659-0.218-3.33-0.403-5-0.412
		c0.071-1.084,0.179-2.166,0.356-3.24c0.873-5.295,3.114-10.407,6.692-14.407c1.045-1.168,2.198-2.238,3.414-3.226
		c1.363-1.106,2.813-2.102,4.325-2.992c-2.012,0.916-3.978,1.893-5.835,3.022c-3.75,2.263-7.103,5.184-9.181,8.792
		c-2.082,3.605-2.844,7.87-3.092,12.202c-0.261,4.342,0.014,8.841-0.248,13.485c-0.134,2.319-0.4,4.678-0.955,7.016
		c-0.546,2.349-1.436,4.623-2.458,6.71c-2.046,4.157-4.448,8.085-7.19,11.775c-2.701,3.691-5.875,7.114-9.081,10.225
		c-1.551,1.579-3.025,3.21-4.034,5.13c-0.999,1.91-1.588,4.128-1.184,6.372c-0.841-2.13-0.613-4.62,0.183-6.81
		c0.801-2.227,2.175-4.173,3.589-5.967c1.439-1.792,2.861-3.472,4.187-5.26c1.336-1.773,2.605-3.591,3.805-5.45
		c1.15-1.777,2.234-3.599,3.257-5.45c0.657-2.107,0.634-4.264,0.412-6.376c-0.331-2.881-1.095-5.835-1.817-8.818
		c-0.456-1.845-0.926-3.722-1.357-5.646c-0.107-0.616-0.215-1.231-0.349-1.841c-0.056-0.235-0.119-0.463-0.177-0.696
		c-0.07-0.364-0.146-0.723-0.211-1.092c-0.051-0.29-0.088-0.59-0.135-0.884c-0.047,0.031-0.091,0.065-0.137,0.096
		c-0.628-2.315-1.323-4.568-1.989-6.801c-0.915-3.051-1.777-6.072-2.338-9.159c-0.549-3.083-0.779-6.248-0.383-9.459
		c-1.199,3.005-1.708,6.325-1.778,9.618c-0.086,3.303,0.237,6.592,0.623,9.806c0.391,3.216,0.857,6.372,1.124,9.456
		c0.001,0.013,0.003,0.025,0.004,0.038C246.055,90.109,239.927,97.82,235.639,106.438z M305.863,146.393
		c0.191,0.624,0.207,1.333-0.025,2.009c-0.438,1.357-1.64,2.337-2.964,2.688c-1.322,0.358-2.852,0.112-3.911-0.844
		c-0.54-0.469-0.88-1.093-1.024-1.729c-0.057-0.395-0.057-0.793,0.023-1.158c-0.659,0.201-1.322,0.406-2.013,0.598
		c1.139-1.292,2.526-2.324,4.077-3.111c1.549-0.783,3.293-1.289,5.095-1.37c1.818-0.08,3.657,0.304,5.253,1.161
		c1.585,0.845,2.951,2.212,3.494,3.865c-1.344-1.073-2.744-1.746-4.203-2.164c-1.341-0.38-2.719-0.542-4.085-0.515
		C305.686,146.004,305.784,146.193,305.863,146.393z M311.949,139.522c-1.262-0.618-2.577-0.988-3.91-1.186
		c-2.674-0.374-5.431-0.054-8.109,0.626c-2.654,0.688-5.331,1.857-8.078,3.019c-2.754,1.158-5.621,2.401-8.711,2.991
		c2.359-2.054,4.676-3.952,7.232-5.699c2.562-1.719,5.358-3.264,8.575-4.105c3.165-0.805,6.639-0.93,9.856,0.19
		c1.595,0.561,3.087,1.453,4.275,2.615c1.177,1.128,2.17,2.723,2.09,4.334C314.398,140.931,313.209,140.128,311.949,139.522z
		 M247.147,143.575c-0.138,0.063-0.273,0.128-0.411,0.189c-0.169-0.04-0.339-0.078-0.508-0.12
		C246.535,143.621,246.84,143.599,247.147,143.575z M244.165,214.37c-2.714-4.408-4.252-9.434-5.014-14.45
		c-0.376-2.5-0.619-5.068-0.475-7.707c0.152-2.646,0.746-5.238,1.655-7.655c1.854-4.842,4.801-9.013,8.25-12.6
		c-2.111,4.513-4.196,8.946-5.316,13.519c-0.557,2.282-0.871,4.571-0.876,6.85c0.001,2.287,0.277,4.639,0.636,7.002
		c0.72,4.702,1.884,9.301,3.856,13.576c1.973,4.271,4.755,8.209,8.529,11.473C250.738,222.518,246.855,218.743,244.165,214.37z
		 M264.944,217.507c-1.947-1.58-3.72-3.373-5.277-5.329c-1.551-1.959-2.902-4.077-3.914-6.347c1.565,1.928,3.147,3.789,4.839,5.537
		c1.688,1.749,3.462,3.399,5.341,4.922c1.866,1.526,3.893,2.912,5.824,4.49c1.917,1.571,3.774,3.365,4.977,5.556
		C273.295,222.748,268.865,220.697,264.944,217.507z M270.55,213.103c-2.128-1.281-4.322-2.506-6.464-3.896
		c-2.144-1.393-4.204-2.952-6.087-4.727c-1.883-1.771-3.59-3.767-4.974-5.992c-1.375-2.223-2.418-4.692-2.948-7.248
		c-0.113-0.527-0.198-1.057-0.276-1.587c-0.216,3.984-0.122,7.951,0.66,11.776c0.8,3.936,2.346,7.721,4.49,11.17
		c2.144,3.456,4.897,6.555,8.142,9.228c-3.788-1.85-7.1-4.74-9.67-8.183c-2.571-3.449-4.404-7.489-5.266-11.747
		c-0.866-4.258-0.777-8.618-0.172-12.808c0.419-2.869,1.064-5.672,1.841-8.435c0.219-1.557,0.551-3.095,1.085-4.561
		c-0.075,0.508-0.126,1.016-0.173,1.524c0.084-0.263,0.16-0.528,0.245-0.791c-0.112,1.315-0.245,2.623-0.382,3.929
		c0.001,0.935,0.025,1.868,0.087,2.799c0.161,2.473,0.51,4.916,1.181,7.239c1.307,4.656,4.205,8.659,7.745,11.976
		c1.771,1.666,3.701,3.178,5.72,4.584c2.024,1.409,4.152,2.741,6.229,4.199c2.074,1.455,4.109,3.049,5.856,4.936
		c1.746,1.872,3.216,4.055,4.012,6.457C278.882,218.542,274.779,215.639,270.55,213.103z M254.92,179.531
		c0.192,2.134,0.697,4.14,1.48,6.042c0.777,1.902,1.782,3.701,2.904,5.439c1.128,1.727,2.352,3.441,3.637,5.057
		c1.297,1.603,2.742,3.08,4.627,4.107c-2.13-0.406-4.012-1.762-5.541-3.277c-1.531-1.542-2.856-3.222-4.041-5.037
		c-1.17-1.815-2.152-3.787-2.75-5.891C254.639,183.875,254.457,181.628,254.92,179.531z M284.441,182.034
		c-2.198-0.941-4.297-2.157-6.179-3.667c-1.904-1.495-3.534-3.245-5.085-4.983c-3.079-3.491-5.931-7.015-9.81-9.208
		c-3.853-2.218-8.389-3.328-13.04-3.162c4.527-1.155,9.55-0.559,13.902,1.524c2.178,1.048,4.179,2.508,5.9,4.152
		c1.744,1.635,3.278,3.413,4.805,5.132c1.528,1.716,3.045,3.393,4.741,4.822c1.683,1.452,3.56,2.682,5.548,3.719
		c3.987,2.073,8.457,3.248,13.105,3.503C293.72,184.599,288.839,183.905,284.441,182.034z M300.758,168.277
		c-3.265,0.612-6.622,0.599-9.9,0.193c-3.273-0.452-6.481-1.296-9.528-2.505c-3.05-1.174-5.979-2.755-8.669-4.435
		c-2.707-1.668-5.253-3.343-7.985-4.645c-5.468-2.664-11.51-4.218-17.831-4.758c6.265-1.111,12.927-0.37,19.043,1.921
		c3.088,1.133,5.937,2.754,8.656,4.272c2.721,1.538,5.386,2.9,8.216,3.996c5.61,2.207,11.617,3.432,17.585,2.915
		c2.987-0.239,5.922-0.928,8.661-2.205c2.233-1.024,4.288-2.486,5.964-4.401c-0.83,0.82-1.787,1.532-2.798,2.127
		c-1.788,1.042-3.741,1.772-5.709,2.286c-3.942,1.05-8.143,1.31-12.25,0.682c-4.096-0.633-8.119-2.197-11.44-4.685
		c-3.322-2.452-6.013-5.805-7.29-9.604c2.68,2.951,5.66,5.288,8.941,7.01c3.262,1.745,6.766,2.841,10.386,3.405
		c3.623,0.549,7.346,0.573,11.078,0.16c3.728-0.422,7.41-1.145,10.702-3.422c-0.192,0.326-0.412,0.636-0.644,0.938
		c-1.101,2.899-3.33,5.408-5.992,7.169C307.215,166.536,304.012,167.713,300.758,168.277z M304.72,178.775
		c1.862-1.707,3.639-3.384,5.285-5.169c1.649-1.778,3.18-3.635,4.587-5.586c1.406-1.95,2.684-3.991,3.848-6.118
		c1.172-2.127,2.199-4.344,3.225-6.651c-0.076,2.53-0.66,5.032-1.547,7.417c-0.895,2.386-2.125,4.652-3.618,6.727
		c-1.493,2.075-3.253,3.96-5.232,5.565C309.286,176.558,307.097,177.904,304.72,178.775z M320.75,216.814
		c-0.244-1.726-0.401-3.472-0.448-5.227c-0.053-1.761,0.07-3.5,0.176-5.249c0.337-3.461,0.964-6.85,1.784-10.129
		c0.871-3.418,1.906-6.719,2.987-9.956c-2.728,4.975-5.565,9.705-7.817,14.502c-1.49,3.247-2.712,6.478-3.514,9.85
		c-0.789,3.381-1.186,6.883-1.234,10.434c-0.12,7.133,1.38,14.348,4.251,21.568c-2.846-2.67-5.128-5.978-6.891-9.568
		c-1.764-3.598-2.948-7.52-3.516-11.559c-0.577-4.038-0.572-8.2,0.082-12.294c0.664-4.103,2.026-8.088,3.721-11.748
		c3.474-7.321,8.126-13.512,12.407-19.613c3.901-5.577,7.489-11.137,9.809-17.733c0.067-0.468,0.137-0.932,0.199-1.408
		c0.051,0.129,0.095,0.26,0.144,0.39c0.101-0.31,0.216-0.609,0.311-0.924c0.114,0.804,0.174,1.616,0.205,2.432
		c0.805,2.6,1.234,5.34,1.402,8.094c0.155,3.429-0.103,6.859-0.577,10.215c-0.812,5.465-2.168,10.696-3.482,15.782
		c2.153-5.307,5.461-10.099,9.838-13.55c-2.162,5.72-3.754,11.176-4.508,16.679c-0.389,2.755-0.564,5.449-0.505,8.11
		c0.067,2.663,0.339,5.304,0.926,7.832c1.164,5.062,3.355,9.699,7.054,13.227c1.876,1.775,4.368,3.59,6.609,5.555
		c0.701,0.608,1.397,1.225,2.089,1.848c-0.466-0.592-0.919-1.196-1.345-1.828c-1.436-2.139-2.608-4.568-3.194-7.221
		c-0.572-2.651-0.637-5.264-0.513-7.869c0.132-2.61,0.58-5.208,1.266-7.727c1.068-3.916,2.736-7.623,4.818-11.035
		c0.185-0.293,0.374-0.582,0.551-0.88c0.091-0.149,0.19-0.293,0.282-0.441c0.283-0.431,0.568-0.86,0.865-1.28
		c-0.009-0.01-0.017-0.021-0.027-0.032c0.939-1.46,1.909-2.904,2.943-4.312c2.884-3.951,6.151-7.661,9.706-11.173
		c-4.277,2.593-8.235,5.764-11.846,9.324c-1.062,1.053-2.082,2.154-3.078,3.278c-0.778-1.113-1.49-2.275-2.121-3.483
		c-0.168-0.322-0.169-0.711-0.005-1.035c3.613-7.147,9.063-13.364,15.704-17.842c4.42-2.98,9.356-5.178,14.515-6.517
		c0.428-0.111,0.88,0.05,1.155,0.397c0.169,0.213,0.339,0.424,0.508,0.635c2.307,2.871,4.377,5.93,6.205,9.128
		c0.358,0.626,0.02,1.416-0.672,1.618c-5.114,1.492-10.044,3.554-14.588,6.328c-6.525,3.984-12.216,9.494-16.016,16.094
		c-0.412,0.715-0.802,1.443-1.168,2.183c-0.005-0.053-0.006-0.106-0.01-0.159c-1.631,3.319-2.983,6.73-3.941,10.235
		c-0.626,2.297-1.094,4.629-1.345,6.999c-0.246,2.366-0.377,4.785-0.156,7.07c0.4,4.246,2.439,8.372,4.601,12.488
		c0.47,0.474,0.936,0.954,1.393,1.451c-2.968-0.799-5.787-1.844-8.574-2.944c-1.393-0.556-2.759-1.132-4.132-1.741
		c-1.38-0.615-2.801-1.305-4.211-2.192c-2.838-1.813-5.356-4.297-7.159-7.17c-1.835-2.861-3.082-6.03-3.812-9.255
		c-0.709-3.147-0.921-6.369-0.713-9.536c-0.088,0.451-0.191,0.904-0.273,1.355c-0.211,1.514-0.488,3.032-0.637,4.55
		c-0.154,1.523-0.255,3.057-0.316,4.604c-0.22,6.204,0.48,12.508,1.809,19.122C324.396,230.332,321.777,223.699,320.75,216.814z
		 M323.014,259.85c0.151-2.678,0.911-5.26,2.085-7.689c1.189-2.417,2.851-4.663,4.961-6.484c2.095-1.82,4.681-3.197,7.42-3.757
		c2.721-0.574,5.661-0.374,8.039,0.909c-2.656,0.346-4.959,1.024-7.094,2.029c-2.136,0.991-4.041,2.267-5.806,3.788
		c-1.766,1.518-3.372,3.271-4.925,5.163C326.135,255.7,324.681,257.753,323.014,259.85z M361.011,448.841
		c2.935-2.883,5.62-6.03,7.995-9.35c3.367-4.706,6.206-9.728,8.699-14.938c3.887,1.829,7.488,4.256,10.669,7.147
		C380.219,438.784,370.943,444.58,361.011,448.841z M399.172,420.778c-2.603,3.076-5.396,5.985-8.349,8.722
		c-3.406-3.35-7.29-6.214-11.503-8.466c1.061-2.393,2.054-4.821,3.004-7.268c0.17-0.009,0.34-0.016,0.511-0.043
		c0.966-0.143,1.946-0.218,2.944-0.278c0.995-0.038,2.014-0.084,3.039-0.042c1.025,0.041,2.071,0.092,3.135,0.192
		c-0.862-0.63-1.781-1.203-2.751-1.678c-0.969-0.473-1.972-0.927-3.016-1.263c-0.793-0.272-1.609-0.479-2.433-0.664
		c0.704-1.916,1.385-3.841,2.049-5.77c0.491,0.096,0.986,0.178,1.487,0.236c1.788,0.215,3.569,0.526,5.353,0.878
		c3.564,0.725,7.114,1.705,10.652,2.921c-3.01-2.224-6.313-4.098-9.799-5.609c-1.741-0.765-3.534-1.418-5.356-2.006
		c-0.34-0.109-0.686-0.191-1.032-0.274c0.218-0.651,0.436-1.303,0.651-1.954c0.091-0.276,0.181-0.553,0.272-0.829
		c7.427,1.749,14.371,5.26,21.013,9.349C406.12,411.788,402.85,416.432,399.172,420.778z M395.354,320.814
		c-0.967,0.321-1.917,0.69-2.864,1.072c-0.232-1.33-0.462-2.661-0.71-3.989c10.603-5.58,22.631-8.362,34.614-8.201
		c0.878,6.437,1.399,12.922,1.544,19.416c-11.328-1.596-23.058-0.339-33.757,3.707c-0.158-1.191-0.321-2.38-0.495-3.567
		c-0.165-1.127-0.353-2.25-0.533-3.374c0.096-0.069,0.197-0.13,0.291-0.204c1.036-0.806,2.106-1.571,3.183-2.345
		c2.164-1.529,4.401-3.005,6.71-4.469C400.632,319.258,397.961,319.927,395.354,320.814z M390.688,312.358
		c-0.219-1.06-0.455-2.117-0.686-3.175l0.752-0.368c0.795-0.373,1.555-0.8,2.29-1.285c1.473-0.963,3-1.853,4.555-2.716
		c3.118-1.708,6.382-3.226,9.782-4.574c-3.651,0.238-7.3,0.914-10.86,1.969c-1.784,0.518-3.538,1.152-5.273,1.849
		c-0.751,0.304-1.464,0.685-2.147,1.116c-1.085-4.668-2.273-9.313-3.586-13.923c12.326,0.45,24.692-0.197,36.712-2.381
		c1.3,4.895,2.391,9.845,3.252,14.836C413.375,303.071,401.057,306.088,390.688,312.358z M412.784,400.263
		c-7.462-3.247-15.244-5.759-23.195-7.495c0.87-2.754,1.688-5.524,2.435-8.31c0.425,0.056,0.852,0.095,1.284,0.107
		c1.533,0.045,3.066,0.144,4.608,0.243c3.081,0.217,6.182,0.522,9.324,0.882c-2.812-1.449-5.754-2.655-8.775-3.648
		c-1.509-0.507-3.043-0.937-4.587-1.344c-0.285-0.075-0.574-0.126-0.863-0.177c0.199-0.845,0.403-1.689,0.583-2.538
		c5.393,0.625,10.729,1.749,15.914,3.359c3.339,1.038,6.653,2.324,9.75,3.959C417.416,390.43,415.27,395.438,412.784,400.263z
		 M421.284,379.26c-8.641-3.094-17.703-5.011-26.858-5.663c0.367-2.215,0.658-4.439,0.877-6.669c0.12-0.007,0.239-0.006,0.359-0.016
		c1.491-0.121,2.996-0.15,4.513-0.139c3.033,0.041,6.109,0.33,9.221,0.855c-2.725-1.595-5.709-2.813-8.823-3.647
		c-1.556-0.427-3.149-0.735-4.76-0.976c-0.068-0.01-0.135-0.009-0.203-0.017c0.057-0.922,0.109-1.844,0.144-2.767
		c4.02-0.568,8.185-0.438,12.25-0.121c5.817,0.455,11.668,1.286,17.263,2.895C424.246,368.489,422.925,373.928,421.284,379.26z
		 M427.163,349.698c-0.239,2.417-0.551,4.831-0.901,7.242c-9.89-2.62-20.255-3.438-30.427-2.368
		c-0.008-1.056-0.039-2.112-0.071-3.168c0.333-0.058,0.664-0.132,0.99-0.241c1.065-0.349,2.156-0.634,3.264-0.907
		c1.11-0.251,2.239-0.515,3.39-0.694c1.15-0.18,2.321-0.355,3.516-0.488c-1.122-0.43-2.283-0.79-3.467-1.045
		c-1.184-0.253-2.393-0.481-3.615-0.587c-1.223-0.128-2.457-0.156-3.699-0.141c-0.188,0.003-0.372,0.03-0.557,0.05
		c-0.045-0.798-0.099-1.595-0.156-2.393l0.571-0.167c1.27-0.343,2.522-0.728,3.767-1.159c2.497-0.839,5.052-1.541,7.649-2.105
		c5.195-1.144,10.557-1.702,16-1.747c-5.332-1.118-10.873-1.43-16.398-1.053c-2.763,0.196-5.523,0.573-8.258,1.127
		c-0.681,0.148-1.36,0.31-2.032,0.494c-0.551,0.168-1.095,0.36-1.637,0.553c-0.084-0.886-0.164-1.772-0.259-2.656
		c10.598-3.566,22.125-4.274,33.114-2.178C427.866,340.619,427.611,345.167,427.163,349.698z M427.372,278.222
		c-6.624,2.336-13.408,4.052-20.38,4.979c-0.316,0.042-0.632,0.084-0.943,0.149c-2.077,0.434-4.126,1.068-6.294,0.427
		c-0.587-0.174-1.267-0.034-1.904-0.038c-4.46-0.032-8.926,0.066-13.379-0.135c-4.369-0.197-8.705-0.798-13.02-1.601
		c-6.996-1.301-13.773-3.342-20.416-5.82c-7.736-2.886-14.878-6.878-21.343-12.042c-0.109-0.087-0.152-0.258-0.226-0.39
		c0.065-0.036,0.154-0.118,0.189-0.099c1.124,0.598,2.259,1.175,3.358,1.816c7.686,4.479,15.914,7.659,24.401,10.23
		c6.727,2.038,13.608,3.336,20.565,4.227c6.084,0.779,12.196,1.342,18.339,0.984c3.017-0.176,6.026-0.535,9.027-0.9
		c3.317-0.403,6.633-0.838,9.929-1.386c3.69-0.613,7.362-1.336,11.03-2.072c2.421-0.486,4.804-1.137,7.132-1.975
		c0.583-0.21,1.177-0.385,1.766-0.576C432.763,275.892,430.148,277.243,427.372,278.222z M448.141,263.713
		c-0.291,1.086-0.834,2.163-1.529,3.216c-0.744-0.337-1.574-0.532-2.378-0.569c-2.642-0.122-5.489,0.397-7.987,1.213
		c-7.275,2.378-14.64,4.43-22.188,5.733c-3.604,0.622-7.236,1.088-10.893,1.369c-2.464,0.19-4.919,0.364-7.391,0.396
		c-4.4,0.057-8.735-0.452-13.061-1.2c-5.822-1.008-11.507-2.585-17.126-4.331c-4.324-1.344-8.472-3.254-12.698-4.916
		c-4.086-1.607-7.958-3.663-11.846-5.683c-1.268-0.658-2.456-1.473-3.66-2.249c-0.404-0.26-0.389-0.704,0.018-0.98
		c0.724-0.491,1.442-1.012,2.225-1.392c2.507-1.22,5.053-2.35,7.652-3.368c1.388-0.543,2.613-0.595,3.754,0.473
		c0.173,0.162,0.395,0.269,0.584,0.415c6.943,5.362,14.853,8.946,22.829,12.403c5.872,2.545,11.975,4.342,18.26,5.527
		c3.45,0.65,6.949,0.969,10.443,1.1c3.825,0.144,7.613-0.505,11.402-1.027c5.715-0.787,11.18-2.492,16.636-4.268
		c3.971-1.292,7.968-2.503,11.944-3.778c1.004-0.267,2.26-0.731,3.28-0.813C448.681,260.8,448.631,261.885,448.141,263.713z"/>
</g>
</svg>
